<?xml version="1.0" encoding="UTF-8"?>
<!DOCTYPE svg PUBLIC "-//W3C//DTD SVG 1.1//EN" "http://www.w3.org/Graphics/SVG/1.1/DTD/svg11.dtd">
<!-- Creator: CorelDRAW -->
<svg xmlns="http://www.w3.org/2000/svg" xml:space="preserve" width="6.82666in" height="6.82666in" style="shape-rendering:geometricPrecision; text-rendering:geometricPrecision; image-rendering:optimizeQuality; fill-rule:evenodd; clip-rule:evenodd"
viewBox="0 0 6.82666 6.82666"
 xmlns:xlink="http://www.w3.org/1999/xlink">
 <defs>
  <style type="text/css">
   <![CDATA[
    .fil3 {fill:none}
    .fil0 {fill:#AED581}
    .fil2 {fill:#FECA5F}
    .fil1 {fill:#333333;fill-rule:nonzero}
   ]]>
  </style>
 </defs>
 <g id="Layer_x0020_1">
  <metadata id="CorelCorpID_0Corel-Layer"/>
  <rect class="fil0" x="1.06667" y="1.06667" width="4.69332" height="4.69332"/>
  <path class="fil1" d="M0.96 0.853331l4.90666 0 0.106669 0 0 0.106669 0 4.90666 0 0.106669 -0.106669 0 -4.90666 0 -0.106669 0 0 -0.106669 0 -4.90666 0 -0.106669 0.106669 0zm4.79999 0.213339l-4.69332 0 0 4.69332 4.69332 0 0 -4.69332z"/>
  <polygon class="fil1" points="1.01333,3.41333 2.24,3.41333 2.24,3.52 1.01333,3.52 "/>
  <polygon class="fil1" points="4.32,4.58666 4.32,5.86666 4.21333,5.86666 4.21333,4.58666 "/>
  <polygon class="fil1" points="5.17334,1.06666 5.17334,5.86666 5.06667,5.86666 5.06667,1.06666 "/>
  <polygon class="fil1" points="1.01333,5.12 5.81333,5.12 5.81333,5.22667 1.01333,5.22667 "/>
  <polygon class="fil1" points="4.54513,4.26666 5.81333,4.26666 5.81333,4.37333 4.54513,4.37333 "/>
  <polygon class="fil1" points="1.76,1.06666 1.76,5.86666 1.65333,5.86666 1.65333,1.06666 "/>
  <polygon class="fil1" points="2.61333,3.73333 2.61333,5.86666 2.50667,5.86666 2.50667,3.73333 "/>
  <polygon class="fil1" points="3.46667,1.06666 3.46667,5.86666 3.36,5.86666 3.36,1.06666 "/>
  <polygon class="fil1" points="1.01333,2.55999 5.81333,2.55999 5.81333,2.66666 1.01333,2.66666 "/>
  <polygon class="fil1" points="1.01333,1.70666 5.81333,1.70666 5.81333,1.81333 1.01333,1.81333 "/>
  <path class="fil1" d="M0.870417 5.80958l1.44734 -2.27136 0.179165 0.114165 -1.44734 2.27136 -0.179165 -0.114165zm2.00037 -2.40018l1.18873 0.67163 -0.104165 0.185 -1.18873 -0.67163 0.104165 -0.185zm1.51571 0.620213l1.34808 -1.48754 0.157504 0.142504 -1.34808 1.48754 -0.157504 -0.142504z"/>
  <path class="fil1" d="M2.57687 3.01611c0.103079,0 0.196413,0.0417913 0.263976,0.109354 0.0675669,0.0675669 0.109358,0.160902 0.109358,0.26398 0,0.103079 -0.0417913,0.196413 -0.109358,0.26398 -0.067563,0.067563 -0.160898,0.109354 -0.263976,0.109354 -0.103079,0 -0.196413,-0.0417913 -0.26398,-0.109354 -0.067563,-0.0675669 -0.109354,-0.160902 -0.109354,-0.26398 0,-0.103079 0.0417913,-0.196413 0.109354,-0.26398 0.0675669,-0.067563 0.160902,-0.109354 0.26398,-0.109354zm0.113142 0.260189c-0.0289409,-0.0289409 -0.0689488,-0.0468504 -0.113142,-0.0468504 -0.0441929,0 -0.0842008,0.0179055 -0.113146,0.0468504 -0.0289449,0.0289449 -0.0468504,0.0689528 -0.0468504,0.113146 0,0.0441929 0.0179055,0.0842008 0.0468504,0.113146 0.0289449,0.0289449 0.0689528,0.0468504 0.113146,0.0468504 0.0441929,0 0.0842008,-0.0179094 0.113142,-0.0468504 0.0289488,-0.0289488 0.0468543,-0.0689528 0.0468543,-0.113146 0,-0.0441929 -0.0179055,-0.0841969 -0.0468543,-0.113146z"/>
  <path class="fil1" d="M4.25706 3.89415c0.103079,0 0.196413,0.0417913 0.26398,0.109358 0.067563,0.067563 0.109354,0.160898 0.109354,0.263976 0,0.103079 -0.0417913,0.196413 -0.109354,0.26398 -0.0675669,0.067563 -0.160902,0.109354 -0.26398,0.109354 -0.103079,0 -0.196413,-0.0417913 -0.263976,-0.109354 -0.0675669,-0.0675669 -0.109358,-0.160902 -0.109358,-0.26398 0,-0.103083 0.0417913,-0.196417 0.109358,-0.263976 0.0675591,-0.0675669 0.160894,-0.109358 0.263976,-0.109358zm0.113146 0.260193c-0.0289488,-0.0289488 -0.0689528,-0.0468543 -0.113146,-0.0468543 -0.044189,0 -0.0841969,0.0179094 -0.113142,0.0468543 -0.0289449,0.0289449 -0.0468543,0.0689528 -0.0468543,0.113142 0,0.0441929 0.0179055,0.0841969 0.0468543,0.113146 0.0289409,0.0289409 0.0689488,0.0468504 0.113142,0.0468504 0.0441929,0 0.0842008,-0.0179055 0.113146,-0.0468504 0.0289449,-0.0289449 0.0468504,-0.0689528 0.0468504,-0.113146 0,-0.0441929 -0.0179094,-0.0842008 -0.0468504,-0.113142z"/>
  <polygon class="fil1" points="1.01333,4.26666 3.94667,4.26666 3.94667,4.37333 1.01333,4.37333 "/>
  <polygon class="fil1" points="4.32,1.06666 4.32,3.94666 4.21333,3.94666 4.21333,1.06666 "/>
  <polygon class="fil1" points="2.61333,1.06666 2.61333,3.09333 2.50667,3.09333 2.50667,1.06666 "/>
  <polygon class="fil1" points="2.88,3.41333 5.81333,3.41333 5.81333,3.52 2.88,3.52 "/>
  <path class="fil2" d="M2.69001 3.50259c0.0289488,-0.0289488 0.0468543,-0.0689528 0.0468543,-0.113146 0,-0.0441929 -0.0179055,-0.0841969 -0.0468543,-0.113146 -0.0289409,-0.0289409 -0.0689488,-0.0468504 -0.113142,-0.0468504 -0.0441929,0 -0.0842008,0.0179055 -0.113146,0.0468504 -0.0289449,0.0289449 -0.0468504,0.0689528 -0.0468504,0.113146 0,0.0441929 0.0179055,0.0842008 0.0468504,0.113146 0.0289449,0.0289449 0.0689528,0.0468504 0.113146,0.0468504 0.0441929,0 0.0842008,-0.0179094 0.113142,-0.0468504z"/>
  <path class="fil2" d="M4.14392 4.15434c-0.0289449,0.0289449 -0.0468543,0.0689528 -0.0468543,0.113142 0,0.0441929 0.0179055,0.0841969 0.0468543,0.113146 0.0289409,0.0289409 0.0689488,0.0468504 0.113142,0.0468504 0.0441929,0 0.0842008,-0.0179055 0.113146,-0.0468504 0.0289449,-0.0289449 0.0468504,-0.0689528 0.0468504,-0.113146 0,-0.0441929 -0.0179094,-0.0842008 -0.0468504,-0.113142 -0.0289488,-0.0289488 -0.0689528,-0.0468543 -0.113146,-0.0468543 -0.044189,0 -0.0841969,0.0179094 -0.113142,0.0468543z"/>
 </g>
 <rect class="fil3" width="6.82666" height="6.82666"/>
</svg>
