<?xml version="1.0" encoding="UTF-8"?>
<!DOCTYPE svg PUBLIC "-//W3C//DTD SVG 1.1//EN" "http://www.w3.org/Graphics/SVG/1.1/DTD/svg11.dtd">
<!-- Creator: CorelDRAW -->
<svg xmlns="http://www.w3.org/2000/svg" xml:space="preserve" width="2048px" height="2048px" style="shape-rendering:geometricPrecision; text-rendering:geometricPrecision; image-rendering:optimizeQuality; fill-rule:evenodd; clip-rule:evenodd"
viewBox="0 0 2048 2048"
 xmlns:xlink="http://www.w3.org/1999/xlink">
 <defs>
  <style type="text/css">
   <![CDATA[
    .fil2 {fill:none}
    .fil0 {fill:#717171}
    .fil1 {fill:#DADADA}
   ]]>
  </style>
 </defs>
 <g id="Layer_x0020_1">
  <metadata id="CorelCorpID_0Corel-Layer"/>
  <polygon class="fil0" points="288,255.999 1760,255.999 1792,255.999 1792,288 1792,1760 1792,1792 1760,1792 288,1792 255.999,1792 255.999,1760 255.999,288 255.999,255.999 "/>
  <path class="fil1" d="M1552 319.999l0 191.999 191.999 0 0 32.0008 -191.999 0 0 224 2.53465 0 116.048 -151.767 50.6504 38.6646 -86.4839 113.102 109.25 0 0 32.0008 -133.719 0 -58.2804 76.2178 0 147.782 191.999 0 0 32.0008 -191.999 0 0 224 191.999 0 0 32.0008 -191.999 0 0 224 191.999 0 0 32.0008 -191.999 0 0 191.999 -32.0008 0 0 -191.999 -224 0 0 191.999 -32.0008 0 0 -191.999 -224 0 0 191.999 -32.0008 0 0 -191.999 -224 0 0 191.999 -32.0008 0 0 -191.999 -224 0 0 191.999 -32.0008 0 0 -191.999 -48.7843 0 -92.6824 176.348 -56.4178 -29.6504 77.0989 -146.698 -71.2134 0 0 -32.0008 88.0324 0 103.967 -197.819 0 -26.1803 -191.999 0 0 -32.0008 191.999 0 0 -224 -191.999 0 0 -32.0008 191.999 0 0 -224 -191.999 0 0 -32.0008 191.999 0 0 -224 -191.999 0 0 -32.0008 191.999 0 0 -191.999 32.0008 0 0 191.999 224 0 0 -191.999 32.0008 0 0 191.999 224 0 0 -191.999 32.0008 0 0 191.999 224 0 0 -191.999 32.0008 0 0 191.999 224 0 0 -191.999 32.0008 0zm-512.001 704l224 0 0 -224 -224 0 0 224zm-36.6461 0l4.64528 0 0 -224 -224 0 0 123.176 219.354 100.824zm-219.354 0l66.8481 0 -66.8481 -30.7252 0 30.7252zm-50.8772 0l18.8764 0 0 -35.9174 -18.8764 35.9174zm-205.123 0l133.122 0 52.5378 -99.965 14.0504 -26.7331 24.2894 11.165 0 -108.467 -224 0 0 224zm736.001 119.803l0 -87.802 -191.023 0 191.023 87.802zm-224 136.198l224 0 0 -66.1004 -1.05945 -0.486615 -222.94 -102.471 0 169.058zm-256.001 0l224 0 0 -183.768 -87.5304 -40.2319 -136.469 0 0 224zm-139.697 -224l-116.303 0 0 221.293 116.303 -221.293zm-45.7252 224l153.422 0 0 -224 -35.6953 0 -117.726 224zm441.423 256.001l224 0 0 -224 -224 0 0 224zm-256.001 0l224 0 0 -224 -224 0 0 224zm-256.001 0l224 0 0 -224 -170.24 0 -53.7603 102.289 0 121.71zm224 -992.002l-224 0 0 224 224 0 0 -224zm256.001 0l-224 0 0 224 224 0 0 -224zm256.001 0l-224 0 0 224 224 0 0 -224zm256.001 224l0 -224 -224 0 0 224 224 0zm0 45.1642l0 -13.1634 -224 0 0 224 62.7839 0 161.216 -210.836zm0 210.836l0 -105.932 -81.0001 105.932 81.0001 0zm-185.685 32.0008l-38.315 0 0 50.1083 38.315 -50.1083zm185.685 224l0 -224 -105.47 0 -113.007 147.789 -5.52284 7.22245 0 68.9882 224 0zm0 256.001l0 -224 -224 0 0 224 224 0zm-1055.97 0l31.9654 0 0 -60.8221 -31.9654 60.8221z"/>
 </g>
 <rect class="fil2" width="2048" height="2048"/>
</svg>
